<svg width="62" height="62" viewBox="0 0 62 62" fill="none" xmlns="http://www.w3.org/2000/svg">
<path d="M1.97428 4.41235C1.34962 4.90487 1.22949 5.54155 1.22949 8.25642C1.2415 11.4999 1.67396 14.479 2.7431 18.7556C3.92034 23.4766 5.28979 26.6719 6.81541 28.2937C7.07969 28.582 7.29592 28.8222 7.29592 28.8462C7.29592 28.8703 6.9956 29.4229 6.62321 30.0715C6.25081 30.7322 5.73427 31.6813 5.482 32.1858L5.0135 33.1228H6.82742H8.64135L7.84851 34.0718C5.37388 37.0389 3.11549 41.5197 2.88725 43.8982C2.85121 44.3186 2.8392 44.655 2.86322 44.655C2.89926 44.655 3.37977 44.4628 3.93236 44.2225C4.97746 43.7901 6.62321 43.3336 7.19982 43.3336H7.52416L7.35598 43.8021C6.83944 45.2677 6.49107 48.1267 6.85145 47.9825C11.4163 46.1206 13.4104 45.8443 15.9811 46.7212C17.4587 47.2257 17.5308 47.2858 17.9752 48.427C19.4408 52.199 22.5761 55.5626 25.9397 56.9801C27.5854 57.6768 28.5585 57.881 30.5406 57.9531C32.5947 58.0252 33.82 57.857 35.4297 57.2684C39.2258 55.8869 42.4812 52.4993 44.175 48.1747C44.5234 47.2978 44.6195 47.1416 45.124 46.8293C46.1451 46.1806 46.7217 46.0485 48.3795 46.0485C50.1453 46.0605 51.3466 46.3368 53.5449 47.2377C54.3017 47.5381 55.0345 47.8264 55.1546 47.8624C55.3709 47.9345 55.3829 47.8744 55.3108 46.6251C55.2628 45.7962 55.1306 44.9433 54.9504 44.3066L54.6501 43.3096L55.2988 43.3817C56.0796 43.4657 57.7254 43.9823 58.4942 44.3667C58.8065 44.5229 59.0948 44.655 59.1309 44.655C59.251 44.655 59.1909 43.6099 58.9987 42.733C58.5182 40.4385 56.5601 36.7867 54.3978 34.1799L53.5329 33.1228H55.3468H57.1488L56.6202 32.0657C56.3319 31.489 55.8153 30.54 55.479 29.9514C55.1426 29.3628 54.8663 28.8583 54.8663 28.8222C54.8663 28.7982 55.1186 28.4859 55.4429 28.1375C57.2449 26.1434 58.8906 21.7467 60.0799 15.7043C60.7526 12.2927 60.9207 10.731 60.9328 8.19636C60.9328 5.64966 60.8246 5.07305 60.26 4.49644C59.9357 4.1721 59.8396 4.14807 59.3351 4.20813C57.9776 4.3643 55.6351 5.28928 52.3437 6.93502C47.5025 9.34958 43.0818 12.2206 40.6433 14.5391L39.6943 15.428L38.4209 15.2238C36.3427 14.8634 34.4087 14.7433 31.0811 14.7433C27.7416 14.7433 25.8196 14.8634 23.7053 15.2238L22.3959 15.44L21.6872 14.7313C19.2846 12.3287 14.6237 9.30153 9.29003 6.68276C6.86346 5.48148 5.06155 4.74871 3.72814 4.40034C2.57492 4.11203 2.35869 4.11203 1.97428 4.41235ZM7.71637 9.91418C10.6835 11.3677 15.0321 14.0225 17.4227 15.8605C17.9632 16.2689 18.4798 16.6653 18.5639 16.7374C18.696 16.8335 18.5038 17.0017 17.6269 17.5062C15.4165 18.8036 12.9779 21.026 10.9598 23.5727C10.4312 24.2334 9.9147 24.9181 9.79457 25.0742C9.60237 25.3746 9.60237 25.3746 9.41016 25.1343C9.02575 24.6298 7.89656 22.2993 7.24787 20.6776C5.81836 17.0858 4.49695 10.3947 4.96545 9.15738C5.1096 8.80901 5.86641 9.01323 7.71637 9.91418ZM57.1488 9.20543C57.7013 10.2626 56.3679 17.0377 54.8423 20.8097C54.1816 22.4675 52.7401 25.3265 52.5839 25.3025C52.5479 25.3025 52.0914 24.7259 51.5628 24.0291C49.5207 21.3383 46.8659 18.8757 44.5234 17.5062L43.4302 16.8696L43.7185 16.6413C47.0821 13.9865 52.4037 10.707 55.3829 9.44569C56.6322 8.91713 56.9686 8.88109 57.1488 9.20543ZM23.0326 27.1765C23.417 27.3807 23.7774 27.7771 24.0657 28.3177C24.2579 28.6781 24.2939 29.0144 24.2939 30.6602C24.2939 32.3059 24.2579 32.6423 24.0657 33.0027C23.5371 33.9997 22.9485 34.3601 21.8313 34.3601C20.7141 34.3601 20.1255 33.9997 19.597 33.0027C19.4048 32.6423 19.3687 32.3059 19.3687 30.6602C19.3687 28.9063 19.3927 28.6901 19.633 28.2456C19.9333 27.681 20.5219 27.1404 20.9063 27.0564C21.0505 27.0323 21.2787 26.9843 21.4109 26.9482C21.7713 26.8762 22.6842 27.0083 23.0326 27.1765ZM41.5322 27.1765C41.9166 27.3807 42.277 27.7771 42.5653 28.3177C42.7575 28.6781 42.7935 29.0144 42.7935 30.6602C42.7935 32.3059 42.7575 32.6423 42.5653 33.0027C42.0367 33.9997 41.4481 34.3601 40.3309 34.3601C39.2137 34.3601 38.6251 33.9997 38.0966 33.0027C37.9044 32.6423 37.8683 32.3059 37.8683 30.6602C37.8683 28.9063 37.8923 28.6901 38.1326 28.2456C38.4329 27.681 39.0215 27.1404 39.4059 27.0564C39.5501 27.0323 39.7783 26.9843 39.9105 26.9482C40.2709 26.8762 41.1838 27.0083 41.5322 27.1765ZM34.5648 47.478C36.3908 47.5621 36.4869 47.5861 36.4869 48.0786C36.4869 49.2198 33.832 52.6795 32.1022 53.7727C31.0211 54.4574 30.2763 54.1931 28.6305 52.5354C26.9968 50.9136 25.6754 48.9075 25.6754 48.0546C25.6754 47.5621 25.8436 47.526 28.5585 47.4179C30.6126 47.3338 31.7899 47.3459 34.5648 47.478Z" fill="#ECECEC"/>
</svg>
